<svg id="Ebene_1" data-name="Ebene 1" xmlns="http://www.w3.org/2000/svg" viewBox="0 0 442.98 106.39"><defs><style>.cls-1{fill:#496640;}</style></defs><path class="cls-1" d="M116.78,257.55c-.13,1-.28,1.91-.46,2.85-.09.44-.17.87-.27,1.29L67.37,276.07l-16-11.54-24.44,8.38c-.28-.54-.54-1.08-.79-1.63-.14-.29-.26-.58-.39-.87l-5.21,1.79c.12.29.25.58.38.87.25.55.5,1.1.77,1.64.41.83.84,1.65,1.29,2.45A53.18,53.18,0,0,0,120.63,266h0c.39-1.38.73-2.77,1-4.19s.52-2.87.68-4.33c.07-.56.12-1.13.17-1.7Z" transform="translate(-16.35 -198.16)"/><path class="cls-1" d="M22,256.4l-5.31,1.83a52,52,0,0,0,1,5.46L23,261.9A47.43,47.43,0,0,1,22,256.4Z" transform="translate(-16.35 -198.16)"/><path class="cls-1" d="M22.4,243.63c.17-1,.36-2,.59-3a47.7,47.7,0,0,1,93.8,4.62l5.32-1.62A53.19,53.19,0,0,0,17,242.7c-.15.88-.27,1.76-.37,2.65-.12,1.12-.22,2.24-.27,3.37L22,246.79C22.1,245.72,22.23,244.67,22.4,243.63Z" transform="translate(-16.35 -198.16)"/><path class="cls-1" d="M73.65,233.63,66.12,236l8.24,4.27L67,242.61,51,231.05l-28,9.6-6,2c-.15.88-.27,1.76-.37,2.65-.12,1.12-.22,2.24-.27,3.37L22,246.79l3.78-1.3,24.3-8.33,16,11.52,10-3.16-4.28,8.25,7.53-2.39,6.07-11.69Z" transform="translate(-16.35 -198.16)"/><path class="cls-1" d="M97.42,241.54l-7.53,2.39,8.24,4.27h0L67,258.05,51,246.48l-23.19,8-5.76,2-5.31,1.83a52,52,0,0,0,1,5.46L23,261.9,29,259.82l21.06-7.23,16,11.53,33.74-10.68-4.28,8.24,7.53-2.39,6.07-11.68Z" transform="translate(-16.35 -198.16)"/><path class="cls-1" d="M131.29,246.07l-7.54,2.39,8.25,4.27-2.52.8h0l-7,2.21-5.71,1.81-4.13,1.31L67.86,273l-16-11.57L31,268.61l-5.26,1.8-5.21,1.79c.12.29.25.58.38.87.25.55.5,1.1.77,1.64.41.83.84,1.65,1.29,2.45l5.28-1.81,22.66-7.76,16,11.52,48.68-15.41,4.59-1.46,1.49-.47,12-3.8h0l-4.29,8.24,7.54-2.39L143,252.14Z" transform="translate(-16.35 -198.16)"/><path class="cls-1" d="M166.8,256.77a11.14,11.14,0,0,1-8.28-3.21,11.7,11.7,0,0,1-3.17-8.57v-.67a14.36,14.36,0,0,1,1.38-6.4,10.5,10.5,0,0,1,3.88-4.39,10.26,10.26,0,0,1,5.57-1.57,9.41,9.41,0,0,1,7.56,3.12q2.65,3.12,2.66,8.82v2.17H160.77a7.16,7.16,0,0,0,2,4.69,5.92,5.92,0,0,0,4.36,1.72,7.27,7.27,0,0,0,6-3l2.9,2.76a9.71,9.71,0,0,1-3.84,3.33A12,12,0,0,1,166.8,256.77Zm-.64-20.5a4.54,4.54,0,0,0-3.57,1.55,8,8,0,0,0-1.74,4.31h10.24v-.4a6.52,6.52,0,0,0-1.43-4.08A4.51,4.51,0,0,0,166.16,236.27Z" transform="translate(-16.35 -198.16)"/><path class="cls-1" d="M195.16,252.48a4.88,4.88,0,0,0,3.34-1.17,4,4,0,0,0,1.41-2.9H205a7.83,7.83,0,0,1-1.4,4.17,9.19,9.19,0,0,1-3.53,3.07,10.58,10.58,0,0,1-4.82,1.12,10.2,10.2,0,0,1-8-3.25c-2-2.16-2.94-5.16-2.94-9V244a12.67,12.67,0,0,1,2.92-8.75,10.11,10.11,0,0,1,8-3.28,9.83,9.83,0,0,1,7,2.49A8.91,8.91,0,0,1,205,241h-5.07a4.89,4.89,0,0,0-1.4-3.38,4.5,4.5,0,0,0-3.35-1.33,4.75,4.75,0,0,0-4,1.89,9.66,9.66,0,0,0-1.43,5.74v.87c0,2.59.46,4.53,1.4,5.8A4.72,4.72,0,0,0,195.16,252.48Z" transform="translate(-16.35 -198.16)"/><path class="cls-1" d="M212.79,244.15a14.09,14.09,0,0,1,1.39-6.34,10.19,10.19,0,0,1,3.91-4.34,11.07,11.07,0,0,1,5.8-1.51,10.44,10.44,0,0,1,7.86,3.12,12.25,12.25,0,0,1,3.26,8.27l0,1.26a14.35,14.35,0,0,1-1.36,6.33,10.13,10.13,0,0,1-3.9,4.31,11.09,11.09,0,0,1-5.85,1.52,10.36,10.36,0,0,1-8.1-3.37,12.9,12.9,0,0,1-3-9Zm5.37.46a9.61,9.61,0,0,0,1.53,5.78,5.32,5.32,0,0,0,8.48,0,10.64,10.64,0,0,0,1.51-6.21,9.5,9.5,0,0,0-1.56-5.75,5.25,5.25,0,0,0-8.41,0Q218.17,240.46,218.16,244.61Z" transform="translate(-16.35 -198.16)"/><path class="cls-1" d="M251.07,226.59v5.81h4.23v4h-4.23v13.36a2.93,2.93,0,0,0,.54,2,2.52,2.52,0,0,0,1.94.61,8.76,8.76,0,0,0,1.88-.22v4.16a13.55,13.55,0,0,1-3.54.5q-6.19,0-6.19-6.83V236.38h-3.94v-4h3.94v-5.81Z" transform="translate(-16.35 -198.16)"/><path class="cls-1" d="M276.68,237.31a13,13,0,0,0-2.19-.17q-3.69,0-5,2.83v16.36h-5.38V232.4h5.14l.13,2.68A6,6,0,0,1,274.8,232a5,5,0,0,1,1.91.31Z" transform="translate(-16.35 -198.16)"/><path class="cls-1" d="M298.47,256.33a8.16,8.16,0,0,1-.62-2.23,9.05,9.05,0,0,1-12.16.62,6.58,6.58,0,0,1-2.28-5.09,6.8,6.8,0,0,1,2.84-5.87c1.89-1.36,4.6-2,8.13-2h3.29v-1.57a4.14,4.14,0,0,0-1-3,4.08,4.08,0,0,0-3.16-1.12,4.78,4.78,0,0,0-3,.92,2.84,2.84,0,0,0-1.17,2.33h-5.37a6,6,0,0,1,1.3-3.68,8.78,8.78,0,0,1,3.55-2.69,12.47,12.47,0,0,1,5-1,10,10,0,0,1,6.7,2.11,7.55,7.55,0,0,1,2.57,5.94V250.8A12.18,12.18,0,0,0,304,256v.37Zm-5.91-3.87a6.17,6.17,0,0,0,3-.77,5.16,5.16,0,0,0,2.11-2.08V245.1h-2.89a7.86,7.86,0,0,0-4.49,1,3.35,3.35,0,0,0-1.51,2.94,3.15,3.15,0,0,0,1,2.46A4,4,0,0,0,292.56,252.46Z" transform="translate(-16.35 -198.16)"/><path class="cls-1" d="M323.26,252.48a4.84,4.84,0,0,0,3.34-1.17,4,4,0,0,0,1.42-2.9h5.06a7.81,7.81,0,0,1-1.39,4.17,9.22,9.22,0,0,1-3.54,3.07,10.55,10.55,0,0,1-4.82,1.12,10.18,10.18,0,0,1-8-3.25c-2-2.16-2.94-5.16-2.94-9V244a12.67,12.67,0,0,1,2.92-8.75,10.1,10.1,0,0,1,8-3.28,9.82,9.82,0,0,1,6.95,2.49,8.84,8.84,0,0,1,2.82,6.53H328a4.94,4.94,0,0,0-1.4-3.38,4.52,4.52,0,0,0-3.36-1.33,4.72,4.72,0,0,0-4,1.89c-.95,1.26-1.42,3.18-1.44,5.74v.87c0,2.59.47,4.53,1.41,5.8A4.7,4.7,0,0,0,323.26,252.48Z" transform="translate(-16.35 -198.16)"/><path class="cls-1" d="M352.44,256.77a11.15,11.15,0,0,1-8.29-3.21A11.7,11.7,0,0,1,341,245v-.67a14.36,14.36,0,0,1,1.38-6.4,10.57,10.57,0,0,1,3.88-4.39,10.26,10.26,0,0,1,5.58-1.57,9.39,9.39,0,0,1,7.55,3.12Q362,238.2,362,243.9v2.17H346.4a7.16,7.16,0,0,0,2,4.69,5.94,5.94,0,0,0,4.37,1.72,7.27,7.27,0,0,0,6-3l2.9,2.76a9.71,9.71,0,0,1-3.84,3.33A12,12,0,0,1,352.44,256.77Zm-.64-20.5a4.55,4.55,0,0,0-3.58,1.55,8.06,8.06,0,0,0-1.73,4.31h10.24v-.4a6.59,6.59,0,0,0-1.44-4.08A4.5,4.5,0,0,0,351.8,236.27Z" transform="translate(-16.35 -198.16)"/><path class="cls-1" d="M374.31,250.67a3.05,3.05,0,0,1,2.32.85,3,3,0,0,1,.82,2.14,2.85,2.85,0,0,1-.82,2.09,3.12,3.12,0,0,1-2.32.83,3.15,3.15,0,0,1-2.28-.82,2.82,2.82,0,0,1-.84-2.1,3,3,0,0,1,.82-2.14A3,3,0,0,1,374.31,250.67Z" transform="translate(-16.35 -198.16)"/><path class="cls-1" d="M387.36,244.15a14.1,14.1,0,0,1,1.4-6.34,10.13,10.13,0,0,1,3.91-4.34,11,11,0,0,1,5.79-1.51,10.46,10.46,0,0,1,7.87,3.12,12.25,12.25,0,0,1,3.26,8.27l0,1.26a14.22,14.22,0,0,1-1.36,6.33,10.11,10.11,0,0,1-3.89,4.31,11.09,11.09,0,0,1-5.85,1.52,10.38,10.38,0,0,1-8.11-3.37,12.94,12.94,0,0,1-3-9Zm5.38.46a9.68,9.68,0,0,0,1.52,5.78,5.33,5.33,0,0,0,8.49,0,10.72,10.72,0,0,0,1.51-6.21,9.5,9.5,0,0,0-1.56-5.75,5.25,5.25,0,0,0-8.41,0C393.25,239.76,392.74,241.84,392.74,244.61Z" transform="translate(-16.35 -198.16)"/><path class="cls-1" d="M431.44,237.31a13.13,13.13,0,0,0-2.19-.17q-3.69,0-5,2.83v16.36H418.9V232.4H424l.14,2.68a6,6,0,0,1,5.39-3.12,4.93,4.93,0,0,1,1.9.31Z" transform="translate(-16.35 -198.16)"/><path class="cls-1" d="M438.23,244.19a14,14,0,0,1,2.62-8.9,8.42,8.42,0,0,1,7-3.33,7.87,7.87,0,0,1,6.43,2.85l.25-2.41h4.84v23.2A9.65,9.65,0,0,1,456.4,263a11.13,11.13,0,0,1-7.91,2.72,12.76,12.76,0,0,1-5.14-1.09,9.15,9.15,0,0,1-3.81-2.87l2.54-3.22a7.68,7.68,0,0,0,6.1,2.94,6,6,0,0,0,4.23-1.45A5.58,5.58,0,0,0,454,255.8v-1.61a7.94,7.94,0,0,1-6.2,2.58,8.36,8.36,0,0,1-6.86-3.34Q438.23,250.1,438.23,244.19Zm5.35.46a9.65,9.65,0,0,0,1.47,5.68,4.75,4.75,0,0,0,4.08,2.07,5.18,5.18,0,0,0,4.83-2.79V239.08a5.11,5.11,0,0,0-4.78-2.72,4.77,4.77,0,0,0-4.13,2.1A10.8,10.8,0,0,0,443.58,244.65Z" transform="translate(-16.35 -198.16)"/><path class="cls-1" d="M167.45,273.64h-3.62v10.05h-1.48V273.64h-3.61v-1.22h8.71Z" transform="translate(-16.35 -198.16)"/><path class="cls-1" d="M174.65,279.13H172v4.56h-1.49V272.42h3.73a4.4,4.4,0,0,1,2.93.87,3.1,3.1,0,0,1,1,2.52,3,3,0,0,1-.57,1.84,3.45,3.45,0,0,1-1.58,1.17l2.64,4.78v.09H177.1ZM172,277.92h2.29a2.59,2.59,0,0,0,1.76-.57,2,2,0,0,0,.65-1.54,2,2,0,0,0-.62-1.6,2.58,2.58,0,0,0-1.8-.57H172Z" transform="translate(-16.35 -198.16)"/><path class="cls-1" d="M187.9,280.75h-4.72l-1.06,2.94h-1.54l4.31-11.27h1.3l4.31,11.27H189Zm-4.27-1.22h3.83l-1.92-5.27Z" transform="translate(-16.35 -198.16)"/><path class="cls-1" d="M201.62,280.12a4.16,4.16,0,0,1-1.32,2.76,4.33,4.33,0,0,1-3,1,4,4,0,0,1-3.2-1.43,5.79,5.79,0,0,1-1.2-3.84V277.5a6.44,6.44,0,0,1,.56-2.76,4.2,4.2,0,0,1,1.59-1.83,4.41,4.41,0,0,1,2.39-.64,4.09,4.09,0,0,1,2.88,1,4.21,4.21,0,0,1,1.26,2.78h-1.5a3.25,3.25,0,0,0-.84-2,2.55,2.55,0,0,0-1.8-.61,2.66,2.66,0,0,0-2.24,1.06,4.83,4.83,0,0,0-.81,3v1.09a5,5,0,0,0,.77,2.92,2.48,2.48,0,0,0,2.14,1.08,2.86,2.86,0,0,0,1.91-.56,3.07,3.07,0,0,0,.87-1.95Z" transform="translate(-16.35 -198.16)"/><path class="cls-1" d="M207.91,278.45l-1.38,1.44v3.8H205V272.42h1.49V278l5-5.58h1.79l-4.43,5,4.78,6.29H211.9Z" transform="translate(-16.35 -198.16)"/><path class="cls-1" d="M218,283.69h-1.49V272.42H218Z" transform="translate(-16.35 -198.16)"/><path class="cls-1" d="M230.75,283.69h-1.5L223.58,275v8.68h-1.5V272.42h1.5l5.69,8.73v-8.73h1.48Z" transform="translate(-16.35 -198.16)"/><path class="cls-1" d="M243.1,282.22a3.42,3.42,0,0,1-1.6,1.22,6.46,6.46,0,0,1-2.39.41,4.64,4.64,0,0,1-2.44-.65,4.31,4.31,0,0,1-1.66-1.84,6.3,6.3,0,0,1-.59-2.76v-1a5.93,5.93,0,0,1,1.18-3.95,4.17,4.17,0,0,1,3.34-1.4,4.26,4.26,0,0,1,2.84.9,3.91,3.91,0,0,1,1.32,2.56h-1.49a2.45,2.45,0,0,0-2.66-2.25,2.63,2.63,0,0,0-2.26,1,5.07,5.07,0,0,0-.78,3.05v.92a4.77,4.77,0,0,0,.87,3,2.79,2.79,0,0,0,2.34,1.12,5.25,5.25,0,0,0,1.46-.18,2.17,2.17,0,0,0,1-.63V279.3H239v-1.22h4.09Z" transform="translate(-16.35 -198.16)"/><path class="cls-1" d="M259.77,273.64h-3.62v10.05h-1.48V273.64h-3.62v-1.22h8.72Z" transform="translate(-16.35 -198.16)"/><path class="cls-1" d="M271.5,283.69H270v-5.21h-5.69v5.21h-1.48V272.42h1.48v4.85H270v-4.85h1.49Z" transform="translate(-16.35 -198.16)"/><path class="cls-1" d="M281.9,278.48H277v4h5.67v1.21h-7.16V272.42h7.09v1.22H277v3.63h4.88Z" transform="translate(-16.35 -198.16)"/><path class="cls-1" d="M293.69,280.14l.22,1.49.32-1.34,2.22-7.87h1.26l2.17,7.87.31,1.36.24-1.52,1.75-7.71h1.5l-2.74,11.27h-1.35l-2.32-8.21-.18-.86-.18.86-2.41,8.21h-1.35l-2.73-11.27h1.49Z" transform="translate(-16.35 -198.16)"/><path class="cls-1" d="M315.39,278.42a7,7,0,0,1-.56,2.89,4.18,4.18,0,0,1-1.58,1.89,4.35,4.35,0,0,1-6.34-1.87,6.68,6.68,0,0,1-.58-2.81v-.81a6.84,6.84,0,0,1,.56-2.87,4.18,4.18,0,0,1,4-2.57,4.41,4.41,0,0,1,2.39.65,4.22,4.22,0,0,1,1.59,1.9,7,7,0,0,1,.56,2.89Zm-1.48-.72a5.09,5.09,0,0,0-.8-3.08,2.65,2.65,0,0,0-2.26-1.07,2.61,2.61,0,0,0-2.21,1.07,5,5,0,0,0-.84,3v.83a5.1,5.1,0,0,0,.82,3.06,2.86,2.86,0,0,0,4.48.06,5,5,0,0,0,.81-3Z" transform="translate(-16.35 -198.16)"/><path class="cls-1" d="M323.15,279.13H320.5v4.56H319V272.42h3.73a4.42,4.42,0,0,1,2.93.87,3.13,3.13,0,0,1,1,2.52,3,3,0,0,1-.57,1.84,3.34,3.34,0,0,1-1.58,1.17l2.65,4.78v.09h-1.6Zm-2.65-1.21h2.29a2.61,2.61,0,0,0,1.76-.57,2,2,0,0,0,.65-1.54,2,2,0,0,0-.62-1.6,2.59,2.59,0,0,0-1.8-.57H320.5Z" transform="translate(-16.35 -198.16)"/><path class="cls-1" d="M331.67,282.48H337v1.21h-6.84V272.42h1.5Z" transform="translate(-16.35 -198.16)"/><path class="cls-1" d="M340.1,283.69V272.42h3.18a5.15,5.15,0,0,1,2.6.65,4.44,4.44,0,0,1,1.74,1.85,6,6,0,0,1,.63,2.76v.72a6,6,0,0,1-.62,2.79,4.35,4.35,0,0,1-1.75,1.85,5.57,5.57,0,0,1-2.66.65Zm1.48-10.05v8.84h1.57a3.41,3.41,0,0,0,2.67-1.07,4.4,4.4,0,0,0,1-3v-.66a4.5,4.5,0,0,0-.9-3,3.23,3.23,0,0,0-2.56-1.08Z" transform="translate(-16.35 -198.16)"/><path class="cls-1" d="M355.21,278.67a7.11,7.11,0,0,1-2.78-1.35,2.57,2.57,0,0,1-.87-2,2.71,2.71,0,0,1,1.06-2.2,4.23,4.23,0,0,1,2.77-.87,4.63,4.63,0,0,1,2.07.45,3.35,3.35,0,0,1,1.41,1.24,3.17,3.17,0,0,1,.5,1.72h-1.5a2,2,0,0,0-.65-1.61,2.63,2.63,0,0,0-1.83-.59,2.75,2.75,0,0,0-1.72.49,1.6,1.6,0,0,0-.61,1.34,1.46,1.46,0,0,0,.58,1.17,5.7,5.7,0,0,0,2,.87,9.33,9.33,0,0,1,2.2.88,3.25,3.25,0,0,1,1.18,1.11,2.87,2.87,0,0,1,.38,1.49,2.62,2.62,0,0,1-1.07,2.19,4.53,4.53,0,0,1-2.85.83,5.24,5.24,0,0,1-2.17-.45,3.55,3.55,0,0,1-1.55-1.22,2.91,2.91,0,0,1-.55-1.75h1.49a1.94,1.94,0,0,0,.76,1.61,3.13,3.13,0,0,0,2,.59,2.92,2.92,0,0,0,1.8-.48,1.54,1.54,0,0,0,.63-1.3,1.57,1.57,0,0,0-.58-1.29A6.69,6.69,0,0,0,355.21,278.67Z" transform="translate(-16.35 -198.16)"/><path class="cls-1" d="M374.38,278.48H369.5v4h5.67v1.21H368V272.42h7.08v1.22H369.5v3.63h4.88Z" transform="translate(-16.35 -198.16)"/><path class="cls-1" d="M380.33,272.42l3.69,9.2,3.68-9.2h1.93v11.27h-1.48v-4.38l.13-4.74-3.7,9.12h-1.13l-3.7-9.1.15,4.72v4.38h-1.48V272.42Z" transform="translate(-16.35 -198.16)"/><path class="cls-1" d="M395.25,283.69h-1.49V272.42h1.49Z" transform="translate(-16.35 -198.16)"/><path class="cls-1" d="M402.68,278.67a7,7,0,0,1-2.78-1.35,2.55,2.55,0,0,1-.88-2,2.72,2.72,0,0,1,1.07-2.2,4.23,4.23,0,0,1,2.77-.87,4.63,4.63,0,0,1,2.07.45,3.48,3.48,0,0,1,1.41,1.24,3.16,3.16,0,0,1,.49,1.72h-1.49a2.07,2.07,0,0,0-.65-1.61,2.63,2.63,0,0,0-1.83-.59,2.73,2.73,0,0,0-1.72.49,1.6,1.6,0,0,0-.61,1.34,1.46,1.46,0,0,0,.58,1.17,5.61,5.61,0,0,0,2,.87,9.33,9.33,0,0,1,2.2.88,3.14,3.14,0,0,1,1.17,1.11,2.78,2.78,0,0,1,.39,1.49,2.62,2.62,0,0,1-1.07,2.19,4.56,4.56,0,0,1-2.86.83,5.22,5.22,0,0,1-2.16-.45,3.58,3.58,0,0,1-1.56-1.22,3,3,0,0,1-.54-1.75h1.49a1.92,1.92,0,0,0,.76,1.61,3.12,3.12,0,0,0,2,.59,2.93,2.93,0,0,0,1.81-.48,1.7,1.7,0,0,0,0-2.59A6.61,6.61,0,0,0,402.68,278.67Z" transform="translate(-16.35 -198.16)"/><path class="cls-1" d="M413.48,278.67a7,7,0,0,1-2.78-1.35,2.57,2.57,0,0,1-.87-2,2.71,2.71,0,0,1,1.06-2.2,4.23,4.23,0,0,1,2.77-.87,4.63,4.63,0,0,1,2.07.45,3.48,3.48,0,0,1,1.41,1.24,3.17,3.17,0,0,1,.5,1.72h-1.5a2.07,2.07,0,0,0-.65-1.61,2.63,2.63,0,0,0-1.83-.59,2.73,2.73,0,0,0-1.72.49,1.6,1.6,0,0,0-.61,1.34,1.46,1.46,0,0,0,.58,1.17,5.61,5.61,0,0,0,2,.87,9.33,9.33,0,0,1,2.2.88,3.25,3.25,0,0,1,1.18,1.11,2.87,2.87,0,0,1,.38,1.49,2.62,2.62,0,0,1-1.07,2.19,4.54,4.54,0,0,1-2.86.83,5.22,5.22,0,0,1-2.16-.45,3.64,3.64,0,0,1-1.56-1.22,3,3,0,0,1-.54-1.75H411a1.92,1.92,0,0,0,.76,1.61,3.12,3.12,0,0,0,2,.59,2.93,2.93,0,0,0,1.81-.48,1.68,1.68,0,0,0,0-2.59A6.5,6.5,0,0,0,413.48,278.67Z" transform="translate(-16.35 -198.16)"/><path class="cls-1" d="M422.55,283.69h-1.48V272.42h1.48Z" transform="translate(-16.35 -198.16)"/><path class="cls-1" d="M435.33,278.42a7,7,0,0,1-.55,2.89,4.18,4.18,0,0,1-1.58,1.89,4.36,4.36,0,0,1-6.35-1.87,6.68,6.68,0,0,1-.58-2.81v-.81a7,7,0,0,1,.56-2.87,4.18,4.18,0,0,1,4-2.57,4.44,4.44,0,0,1,2.39.65,4.22,4.22,0,0,1,1.59,1.9,7,7,0,0,1,.55,2.89Zm-1.47-.72a5,5,0,0,0-.81-3.08,2.65,2.65,0,0,0-2.25-1.07,2.62,2.62,0,0,0-2.22,1.07,4.9,4.9,0,0,0-.83,3v.83a5,5,0,0,0,.82,3.06,2.85,2.85,0,0,0,4.47.06,5,5,0,0,0,.82-3Z" transform="translate(-16.35 -198.16)"/><path class="cls-1" d="M447.62,283.69h-1.49L440.45,275v8.68H439V272.42h1.49l5.69,8.73v-8.73h1.48Z" transform="translate(-16.35 -198.16)"/><path class="cls-1" d="M455,278.67a7.09,7.09,0,0,1-2.79-1.35,2.57,2.57,0,0,1-.87-2,2.72,2.72,0,0,1,1.07-2.2,4.22,4.22,0,0,1,2.76-.87,4.64,4.64,0,0,1,2.08.45,3.38,3.38,0,0,1,1.4,1.24,3.08,3.08,0,0,1,.5,1.72h-1.49a2.07,2.07,0,0,0-.65-1.61,2.66,2.66,0,0,0-1.84-.59,2.72,2.72,0,0,0-1.71.49,1.6,1.6,0,0,0-.61,1.34,1.46,1.46,0,0,0,.58,1.17,5.61,5.61,0,0,0,2,.87,9.52,9.52,0,0,1,2.2.88,3.14,3.14,0,0,1,1.17,1.11,2.78,2.78,0,0,1,.39,1.49,2.62,2.62,0,0,1-1.07,2.19,4.56,4.56,0,0,1-2.86.83,5.3,5.3,0,0,1-2.17-.45,3.61,3.61,0,0,1-1.55-1.22,3,3,0,0,1-.54-1.75h1.49a1.92,1.92,0,0,0,.76,1.61,3.12,3.12,0,0,0,2,.59,2.93,2.93,0,0,0,1.81-.48,1.56,1.56,0,0,0,.62-1.3,1.54,1.54,0,0,0-.58-1.29A6.61,6.61,0,0,0,455,278.67Z" transform="translate(-16.35 -198.16)"/></svg>